<?xml version="1.0" encoding="utf-8"?>
<!-- Generator: Adobe Illustrator 20.1.0, SVG Export Plug-In . SVG Version: 6.00 Build 0)  -->
<svg version="1.1" id="Layer_1" xmlns="http://www.w3.org/2000/svg" xmlns:xlink="http://www.w3.org/1999/xlink" x="0px" y="0px"
	 viewBox="0 0 175.1 424.7" style="enable-background:new 0 0 175.1 424.7;" xml:space="preserve">
<style type="text/css">
	.st0{opacity:0.8;fill:#FFFFFF;stroke:#000000;stroke-miterlimit:10;}
</style>
<path class="st0" d="M166.1,306.8c6.4-16.1,2.7-49.3-20-31.9c-23.3,17.8-40.3,47.7-55.5,72.3c-2.1-23.5-2.7-46.9-2.7-70.6
	c0,1.5,0.4-124.9,0-2.3c13.9,6,39-16.8,47.1-24.2c12-11,24.3-24.8,28.9-40.8c2.6-9.3,2.8-29.1-12.2-21.7c-12.2,6-22,20.5-30,30.9
	c-12.1,15.7-23.2,32.2-33.7,49c0.1-8,0-15.9,0.3-23.9c0.3-8.3,0.6-16.6,1-24.9c0.3-7.8-0.9-19,1.3-26.3c2.2-7.2-1.2-4.5,7.2-6.9
	c3.5-1,7-2.6,10.3-4.3c7.4-3.7,14.5-8.3,21.1-13.2c8.9-6.7,17.2-14.2,24.2-22.9c8.1-10.1,18.1-26.3,9.9-38.9
	c-9.6-14.8-27.1,3.4-34.8,11.9C114.5,133.9,102.9,152,92,170c1.5-21.9,0.4-47.4,8.4-67.6c10.3-26,23.7-55.7,24.7-84.3
	c1.2-32.4-32.7,0.2-38.8,12.7c-9,18.3-10.7,40.7-7.2,60.8c1.2,6.7,3.2,12.8,6.1,18.9c0.6,1.4,2.9,3,3.2,4.3
	c1.3,4.9-1.3,14.8-1.7,19.7c-0.9,10.9-1.7,21.6-2.5,32.6c-10.8-18.7-22.5-37.2-36.2-53.8c-7-8.5-21.2-27.5-33.8-23.2
	c-13.2,4.5-8.4,23.5-4.3,31.9c8,16.3,23.9,29.8,38.7,39.8c8.7,5.9,23.5,16.4,35,14.2c-1.6,25.2-2.8,50.4-3.4,75.6
	c-9.5-14.8-19.3-29.4-30-43.3c-7.4-9.6-20.3-30.6-34-33.1C6,173.3,5.3,186.4,6.6,194c2.9,17.5,16.5,32.8,29.1,44.4
	c9.3,8.6,19.9,16.9,31.6,22c2.8,1.2,9.8,1.9,11.6,3.5c2.2,2.1,1.2,9.7,1.2,14c0,19,0.5,38.6,1.7,57c-5-8-10.2-16.5-15.4-24
	c-0.5,0.2-12.9-17.8-13.9-19.1c-7.6-10-15.6-20.5-25.6-28.1c-4-3-10-7.5-15.3-5.1c-8.2,3.6-8.6,20.9-7.5,27.8
	c3.2,19.5,20.4,36,36.4,46.2c10.2,6.5,29.3,17.3,42.1,12.8c1.7,20.8,1.9,53.8,15.4,71.4c5.7-4.3,5.1-3,4.7-7.8
	c-0.2-2.9-2.5-6.7-3.4-9.6c-4.1-13.9-6.1-28.4-7.6-42.7C118.7,363.7,157.2,329.4,166.1,306.8z"/>
</svg>
