<?xml version="1.0" encoding="utf-8"?>
<!-- Generator: Adobe Illustrator 20.1.0, SVG Export Plug-In . SVG Version: 6.00 Build 0)  -->
<svg version="1.1" id="Layer_1" xmlns="http://www.w3.org/2000/svg" xmlns:xlink="http://www.w3.org/1999/xlink" x="0px" y="0px"
	 viewBox="0 0 282.1 460.6" style="enable-background:new 0 0 282.1 460.6;" xml:space="preserve">
<style type="text/css">
	.st0{fill:#FFFFFF;stroke:#000000;stroke-miterlimit:10;}
</style>
<path class="st0" d="M258.7,287.1c-24.2,6.8-48.1,15.8-70,27.9c0.1,0,0.1,0,0.1,0c-24.4,13.6-48.6,32.1-63.6,56.3
	c-0.8-22.1-0.2-43.7-0.2-65.8c33,12.7,66.5-26.3,84.5-48.9c15.3-19.2,28.7-39.6,40.4-61.2c-48.1,18.3-100.6,47.6-124.3,95.6
	c0.8-17.2,2.1-34.3,3.9-51.4c0.6-5.8,0.2-25.1,3.7-28.7c1.6-1.6,9.4-2.1,12.4-3.1c34.7-11.8,59.2-42.4,73.6-74.9
	c-27.7,9.6-59.5,22.8-80.2,44.5c1.5-7.4,2.8-15.2,5-22.5c2.2-7.2,5.7-9.2,10.9-15.2c8.6-9.9,15.3-21.3,20.5-33.3
	c13.6-31.7,15.1-67.1,10.1-101C163.4,32,141.6,60,128.7,91.8c-5.7,14.2-10.8,32.5-3.5,46.9c2.2,4.4,7.8,7,9.7,10.9
	c1.8,3.6,0.7,6.6-0.4,11.3c-1.5,6.7-3,13.5-4.3,20.3C116,154.8,87.6,134.7,63,118.4c6.1,27.6,18.6,54.4,39.5,74.1
	c3.6,3.4,7.3,6.5,11.3,9.3c2.2,1.6,4.8,2.8,6.9,4.5c5.5,4.5,4.5,4.2,3.4,12.3c-2.3,17.3-4.1,34.3-5.4,51.8
	c-13.9-48.3-59.3-82.4-103.1-103c6.8,23,17,46.5,29,68c13.5,24.3,39.6,64.7,73.1,51.5c-1.2,23.1-1.4,46.8-0.9,70
	c-21.1-45.7-66.4-77.1-110.1-98.7c8,19.5,17.7,38.5,28.6,56.6c15.6,25.9,45.6,73.7,82.3,64.8c1.1,23.3,2.5,46.6,5.9,69.6
	c8.5-1.3,6.7,0.4,7.3-5.3c1.1-9.6-2.4-21.4-3.2-31.2c-0.8-9.3-1.4-18.7-1.9-28c27.9,13.5,60.1-10,81-27.6
	c25.3-21.4,47.6-46.9,67-73.8C268.7,284.4,263.7,285.7,258.7,287.1z"/>
</svg>
