<?xml version="1.0" encoding="utf-8"?>
<!-- Generator: Adobe Illustrator 20.1.0, SVG Export Plug-In . SVG Version: 6.00 Build 0)  -->
<svg version="1.1" id="Layer_1" xmlns="http://www.w3.org/2000/svg" xmlns:xlink="http://www.w3.org/1999/xlink" x="0px" y="0px"
	 viewBox="0 0 160.2 159.8" style="enable-background:new 0 0 160.2 159.8;" xml:space="preserve">
<style type="text/css">
	.st0{fill:#FFFFFF;stroke:#000000;stroke-miterlimit:10;}
</style>
<path class="st0" d="M40.3,57.4c0,0-24.8-21.2-21-27.4c3.8-6.3,32.8,13.9,32.8,13.9s-17.5-17.5-7.5-27.6C54.7,6.3,64.8,37,64.8,37
	s1.3-32,7.6-30.7c6.3,1.3,10,25.7,10,25.7S91.2,0,99.9,6.3c8.8,6.3,0,36.4,0,36.4s17.6-22.6,23.8-16.3c6.3,6.3-10,31.4-10,31.4
	s25.1-33.1,30.1-18.1c5,15.1-31.4,25.8-31.4,25.8s40.2-4,40.2,0c0,17-28.9,17.1-28.9,17.1s28.9,7.6,23.8,20.2
	c-5,12.5-28.9,0.7-28.9,0.7s18.8,17.7,12.5,24.1c-6.3,6.4-27.6-14.8-27.6-14.8S118.8,141,110,147c-8.8,6-24.2-27.8-24.2-27.8
	s2.9,25.8-5.9,28.6c-8.8,2.8-8.8-27.3-8.8-27.3s-5,28.7-15.1,27.5c-10-1.1,0-32.5,0-32.5S34.7,137.2,28.4,137
	c-6.3-0.2,16.3-35.3,16.3-35.3S14.6,119.2,12.1,113c-2.5-6.3,25.1-23.8,25.1-23.8S5.8,92.9,5.8,85.3c0-7.5,28.9-8.6,28.9-8.6
	s-30.1-9-28.9-19C7.1,47.7,40.3,57.4,40.3,57.4z"/>
<path class="st0" d="M88.7,77.8c0,4.8-4.5,8.8-10,8.8c-5.5,0-10-3.9-10-8.8c0-4.8,4.5-8.8,10-8.8C84.2,69,88.7,73,88.7,77.8z"/>
</svg>
