<?xml version="1.0" encoding="utf-8"?>
<!-- Generator: Adobe Illustrator 20.1.0, SVG Export Plug-In . SVG Version: 6.00 Build 0)  -->
<svg version="1.1" id="Layer_1" xmlns="http://www.w3.org/2000/svg" xmlns:xlink="http://www.w3.org/1999/xlink" x="0px" y="0px"
	 viewBox="0 0 192.3 345.8" style="enable-background:new 0 0 192.3 345.8;" xml:space="preserve">
<style type="text/css">
	.st0{fill:#FFFFFF;stroke:#000000;stroke-miterlimit:10;}
</style>
<path class="st0" d="M177.1,104.4c3.6-12.2,4.7-25.1,4.3-37.8c-0.4-11-5.4-23.6-4.5-34.2c0.7-8.8,10.6-18.1-1.7-25.8
	c-6.8-4.3-16.9-1.3-19.8,6.5c-1.8,4.8-0.9,10.6,2.4,14.3c2.9,3.3,6,2.3,8.6,4.5c4.6,4-2.5-6.9,3.2,4c1.2,2.2,1.2,6.3,1.6,8.8
	c1.3,8.2,2.5,16.8,2.6,24.9c0.2,11.9-1.4,24.6-5.3,36c-6.1,17.7-18.5,32.1-35.5,40c9.6-10.9,17.3-23.8,21.7-37.7
	c2.6-8.4,4-17.1,4.3-25.8c0.3-7.3-1.5-10.7,3-16.3c5-6.7,4-16.6-3-21.7c-12.7-9.2-27.7,6-22.1,18.8c1.7,3.8,4.6,5.2,7.7,7.4
	c1,0.7,5.1,0.5,5.7,1.1c2.2,2.6,0.5,15,0.2,17.8c-2.1,20-11.6,38.6-25.1,53.2c4.3-21.2,4.7-44.6,2.1-66.6c-1.6-13.8-7.2-27.3-8.6-41
	c-0.2-1.5-1.8-3.7-1.6-5.2c0.1-0.8,3.8-3.4,4.3-4.8c1.1-3.1,2-5.8,1.3-9.1c-0.3-1.6-1-3.2-1.8-4.6c-5-8-16.9-8.5-22.6-0.9
	c-4,5.4-3.5,13.2,1.3,17.9c2.9,2.9,7.8,2,10.1,4c1.3,1.2,2,7,2.6,8.9c3.7,13.7,6.3,27.6,7.6,41.7c2,21.5,1.4,42.1-3.5,63.1
	c-8.5-11.9-15.3-25.1-20.6-38.7c-1.8-4.8-3.5-9.6-4.9-14.5c-0.8-2.6-2.1-6.2-2.3-8.8c-0.5-6.1-0.9-2.9,2.5-8.3c1.3-2,3-3.6,3.7-5.5
	c6.6-18.3-24.2-26.2-26.6-6.1c-0.8,6.5,2.7,8.9,7,13.5c3.3,3.6,2.1-0.7,5.2,5.2c1.8,3.5,2.3,9.5,3.5,13.4
	c5.5,18.2,13.7,35.7,24.3,51.4c-28.3-10.4-50.4-32.9-61.3-60.9c-1.9-4.8-7.5-16.1-6.1-20.7c0.7-2.2,5.2-4,7.2-6.8
	c2.9-3.9,3.7-9.1,2.1-13.8c-4.7-13.6-23.9-12.5-28.2,0.2c-2.6,7.7,1.5,12.3,6.4,17.4c4.1,4.2,3-0.1,5.6,7.6c0.5,1.5,1.3,5.2,1.8,7.1
	c2.1,7.3,5,14.2,8.3,21.1c12.3,25.2,33.2,45.1,59.5,55.4c-24.8,3.4-48.2-7.5-63.5-28c-4.8-6.4-8.7-13.5-12-20.8
	c-0.9-2-5.3-9.8-4.8-11.9c0.2-0.8,4.2-2.8,4.7-3.9c3.2-6.2,4.2-12.7-1.2-18.1c-11.6-11.6-29.9,4-21.1,17.3c2.9,4.4,7,3.3,9.5,6
	c3.9,4.2,5.7,14.2,8.2,19.2c5,10,11.3,19.4,19.2,27.3c11.6,11.5,26.9,19.3,42.9,21c8.6,0.9,16.6-1,24.9-1c1,0,3.9-1.1,4.8-1.4
	c5.8,34.1,8.1,66.9-2.9,100.1c-5.5,16.6-12.4,32.7-19.8,48.5c-3.4,7.2-10.8,16.3-12,24.1c-0.7,4.9-0.8,4,5.1,7.2
	c18.7-34,38.7-74,42.3-112.9c1.3-14-0.3-28.5-1.6-42.6c-0.5-5.6-5.1-21.3-3.2-25.3c2-4.3,17.4-7.8,22.8-11.3
	C161.2,137.4,172,121.9,177.1,104.4C177.4,103.4,177.1,104.6,177.1,104.4z"/>
</svg>
