<?xml version="1.0" encoding="utf-8"?>
<!-- Generator: Adobe Illustrator 20.1.0, SVG Export Plug-In . SVG Version: 6.00 Build 0)  -->
<svg version="1.1" id="Layer_1" xmlns="http://www.w3.org/2000/svg" xmlns:xlink="http://www.w3.org/1999/xlink" x="0px" y="0px"
	 viewBox="0 0 258.7 425.4" style="enable-background:new 0 0 258.7 425.4;" xml:space="preserve">
<style type="text/css">
	.st0{fill:#FFFFFF;stroke:#000000;stroke-miterlimit:10;}
</style>
<path class="st0" d="M241.5,128.8c2.4-3.6,4.7-7.4,6.7-11.3c-17.3,6.1-36.6,14-50.3,25.7c-1.9,1.6-3.8,3.4-5.3,5.4
	c3.4-20.3-2.7-41.4-13.4-58.8c-2.5,11.9-4.3,23.7-4.9,35.8c-0.5,9.5-2.4,28.2,7.3,34.7c-11,9.2-20.6,20.2-28.9,31.9
	c-1.9-22.8-5.6-45.6-11.2-67.8c-4.3-17.1-12.6-33.2-16.4-50.3c-1.9-8.4,1.3-18.8,1.1-28c-0.3-13.9-5-28.4-10.7-41.5
	c-3.5,10.7-6.2,21.8-7.3,33c-2.1,20.2,5.5,28.3,12.4,46.3c-15.1-14.7-36.1-21.5-56.8-22.4c8.3,8.6,45.1,49.2,61.8,36.2
	c8.4,24.9,14.2,50.7,17.5,76.8c-13.2-16.5-35.4-24.4-55.4-28.7c3.9,5.3,8.1,10.4,12.6,15.2c5.7,6.2,19.4,21.8,27.6,21.8
	c5.3,0,9.8,3.6,16.3,1.1c4.2,41.3,2.5,83.2-4.5,124c-8.1-29.2-24-56.7-47.6-76c0.2-0.2,1.5-0.9,1.6-1.1c1.4-23.8-16.6-47.9-35.2-62
	c0.5,3.1,1.1,6.1,1.7,9.1c1.8,8.9,8,20.7,8,28.8c-0.2-0.7,3.5,11.1,4.1,11.1c-0.1,0,0,0,0.1,0.1c-20.8-9.3-44.3-7.5-65.1,0.8
	c17.6,7,40.1,16.2,59.4,13.8c1.2-0.1,6.3-2,7.7-2c3.9,0.1,7.3,3,11.1,6c8.4,6.7,15.9,14.4,22.4,23c10.5,13.9,18.2,29.9,23.3,46.5
	c-15.3-20-43-28.3-66.6-31.9c12.1,18.3,43.6,59.7,69.9,44.5c4.4,21.1-8.2,49-15,68.4c-2.1,5.9-5.3,11.9-6.8,17.9
	c-1.6,6.3-3.1,4.2,5.1,8c11.3-24.4,18.7-51.3,24.6-77.5c14.3,6.6,30,0.7,41.1-7.3c12.3-8.9,23.4-21.4,31.9-34.5
	c-23.3,0.9-50.5,4.6-68.7,20.8c4.4-24.4,7-49.1,7.7-73.8c26.2,9.3,53.6-27.6,66-46.4c-23.4,3.6-50,11.4-65.9,31
	c-0.1-11.9-2.1-18.9,4.5-28.3c7.9-11.1,17.7-24.8,29.3-32.2c8.1-5.1,20.6-6.1,30.4-12.7C227.6,146.1,235.3,137.9,241.5,128.8
	C241.8,128.4,241.2,129.2,241.5,128.8z"/>
</svg>
