<?xml version="1.0" encoding="utf-8"?>
<!-- Generator: Adobe Illustrator 20.1.0, SVG Export Plug-In . SVG Version: 6.00 Build 0)  -->
<svg version="1.1" id="Layer_1" xmlns="http://www.w3.org/2000/svg" xmlns:xlink="http://www.w3.org/1999/xlink" x="0px" y="0px"
	 viewBox="0 0 321.1 342.1" style="enable-background:new 0 0 321.1 342.1;" xml:space="preserve">
<style type="text/css">
	.st0{fill:#FFFFFF;stroke:#000000;stroke-miterlimit:10;}
	.st1{fill:#FFFFFF;stroke:#000000;stroke-width:0.6872;stroke-linecap:round;stroke-linejoin:round;stroke-miterlimit:10;}
</style>
<path class="st0" d="M252.3,184.2c-32.9-19.6-71.7,3.5-71.7,3.5s-3.2,45.4,27.8,67.3c31,21.9,91.3,6.7,91.3,6.7
	S285.3,203.8,252.3,184.2z"/>
<path class="st0" d="M131.3,152.9c0.6-14.1-1.1-43.2-22.3-61.3C80.1,67,18.6,76.7,18.6,76.7s9.2,59,40.3,81.4c31,22.5,71.7,3,71.7,3
	S131.1,158,131.3,152.9L131.3,152.9C131.3,152.9,131.3,152.9,131.3,152.9z"/>
<path class="st0" d="M156.4,194.8c0,0-42.2,17.2-48.1,54.6c-6,37.5,34.3,84.9,34.3,84.9s45.6-38.6,48.6-76.8
	C194.2,219.4,156.4,194.8,156.4,194.8z"/>
<path class="st0" d="M126.6,181.8c0,0-39.1-23.4-72.6-5.6c-33.5,17.7-47.2,78.4-47.2,78.4s58.2,13.2,90.5-7.3
	C129.7,226.8,126.6,181.8,126.6,181.8z"/>
<path class="st0" d="M163,4.2c0,0-43.7,40.7-44.9,79c-1.2,38.3,37.7,61,37.7,61s41.3-19.1,45.5-56.8C205.5,49.7,163,4.2,163,4.2z"/>
<path class="st1" d="M218.1,93.9c-35.3,14.8-39.9,59.6-39.9,59.6s34.6,29.6,70.6,17.8c36-11.8,59.8-69.4,59.8-69.4
	S253.4,79.1,218.1,93.9z"/>
<circle class="st0" cx="157.9" cy="171.3" r="33.8"/>
<circle class="st0" cx="187.9" cy="161.6" r="6.6"/>
<circle class="st0" cx="176.2" cy="144.2" r="6.6"/>
<circle class="st0" cx="127.7" cy="157" r="6.6"/>
<circle class="st0" cx="125.5" cy="174.1" r="6.6"/>
<circle class="st0" cx="141" cy="198.1" r="6.6"/>
<circle class="st0" cx="155.6" cy="204.3" r="4.4"/>
<circle class="st0" cx="128.1" cy="187.5" r="4.4"/>
<circle class="st0" cx="176" cy="199.5" r="4.4"/>
<circle class="st0" cx="187.9" cy="194.7" r="4.4"/>
<circle class="st0" cx="192.7" cy="174.3" r="4.4"/>
<circle class="st0" cx="187.9" cy="148" r="4.4"/>
<circle class="st0" cx="162.8" cy="137.2" r="5.6"/>
<circle class="st0" cx="149.6" cy="136" r="5.6"/>
<circle class="st0" cx="134.1" cy="144.4" r="5.6"/>
<circle class="st0" cx="165.7" cy="200" r="6.6"/>
<circle class="st0" cx="187.7" cy="184" r="6.6"/>
</svg>
